<svg width="179" height="41" viewBox="0 0 179 41" fill="none" xmlns="http://www.w3.org/2000/svg">
<path d="M38.25 1.45C35.8 1.45 33.85 3.45 33.85 5.9V34.25C33.85 36.7 35.8 38.7 38.3 38.7V39.4H27.95L8.2 4.4C7.9 3.9 7.3 3.65 6.7 3.85C6.2 4.05 5.9 4.55 5.9 5.05V34.3C5.9 36.7 7.85 38.7 10.25 38.7V39.4H0.8V38.7C3.25 38.7 5.2 36.7 5.2 34.3V5.9C5.2 3.45 3.2 1.45 0.8 1.45V0.749999H11.1L30.85 35.7C31.05 36.1 31.45 36.35 31.9 36.35C32.25 36.35 32.55 36.2 32.8 36C33 35.75 33.15 35.45 33.15 35.1V5.9C33.15 3.45 31.15 1.45 28.7 1.45V0.749999H38.3V1.45H38.25ZM74.5613 37.85C75.3113 38.4 76.2113 38.7 77.1613 38.7V39.4H63.5613V38.7C66.1113 38.7 67.9113 36.1 67.0113 33.7L62.7613 22.4C62.2113 20.9 60.3113 20.45 59.1613 21.6L46.3113 34.45C45.8613 34.9 45.6113 35.55 45.6113 36.15C45.6113 36.9 45.9613 37.65 46.6113 38.1C46.8613 38.3 47.1613 38.45 47.4613 38.55C47.7613 38.65 48.0613 38.7 48.4113 38.7V39.4H38.9113V38.7C40.9613 38.7 42.7613 37.4 43.4613 35.5L54.4113 5.7C54.5113 5.35 54.6113 5 54.6113 4.65C54.6113 2.95 53.2113 1.45 51.4113 1.45V0.749999H59.9113L72.8613 35.7C73.2113 36.6 73.8113 37.35 74.5613 37.85ZM59.8613 19.95C60.7613 19.05 61.0113 17.7 60.6113 16.5L55.8613 3.8L45.7613 31.35C45.3613 32.35 46.6113 33.15 47.3613 32.4L59.8613 19.95ZM104.551 10.9C104.051 5.65 99.7012 1.6 94.4512 1.45H91.5512V34.25C91.5512 36.7 93.5012 38.7 95.9512 38.7V39.4H83.1012V38.7C84.3012 38.7 85.4012 38.2 86.2012 37.4C87.0012 36.6 87.5012 35.45 87.5012 34.25V1.45H84.6012C79.3512 1.6 75.0012 5.65 74.5012 10.9H73.8012L74.0512 8.05L74.7012 0.749999H104.351L105.001 8.05L105.251 10.9H104.551ZM129.887 19.3V19.5C134.587 20.4 138.237 24.25 138.237 29.2C138.237 34.85 133.687 39.4 128.087 39.4H115.237H106.787V38.7C109.237 38.7 111.237 36.7 111.237 34.25V5.9C111.237 4.65 110.737 3.55 109.937 2.75C109.137 1.95 108.037 1.45 106.787 1.45V0.749999H126.737C131.987 0.749999 136.237 5 136.237 10.25C136.237 14.4 133.587 18 129.887 19.3ZM115.237 1.45V15.8C115.237 17.6 116.687 19.05 118.487 19.05H123.437C128.287 19.05 132.237 15.1 132.237 10.25C132.237 5.4 128.287 1.45 123.437 1.45H115.237ZM134.237 29.2C134.237 24 129.987 19.75 124.737 19.75H118.487C116.687 19.75 115.237 21.2 115.237 23V38.7H124.737C129.987 38.7 134.237 34.45 134.237 29.2ZM178.222 0.749999V1.45C175.772 1.45 173.772 3.45 173.772 5.9V26C173.772 29.9 172.222 33.45 169.672 36C167.072 38.55 163.572 40.1 159.672 40.1C151.122 40.1 144.222 33.2 144.222 24.65V5.9C144.222 3.45 142.222 1.45 139.772 1.45V0.749999H152.722V1.45C150.222 1.45 148.272 3.45 148.272 5.9V24.7C148.272 30.95 153.372 36.1 159.672 36.1H161.672C167.972 36.1 173.072 30.95 173.072 24.7V5.9C173.072 3.45 171.122 1.45 168.622 1.45V0.749999H178.222Z" fill="#1E1E1E"/>
</svg>
