<svg width="11" height="11" viewBox="0 0 11 11" fill="none" xmlns="http://www.w3.org/2000/svg">
<path d="M6.68867 0.795784C7.20463 0.79163 7.6727 1.04705 8.0043 1.46078C8.41204 1.36049 8.7954 1.18065 9.13949 0.933254C9.00983 1.43313 8.72836 1.85408 8.36039 2.12161C8.72226 2.06655 9.06802 1.94951 9.38865 1.77592C9.15067 2.20611 8.85013 2.58543 8.50181 2.88961C8.50599 2.98121 8.5086 3.07321 8.50934 3.16522C8.53208 5.9893 6.75245 9.26154 3.45057 9.28812C2.43708 9.29628 1.49007 8.94886 0.691576 8.3491C0.83197 8.36791 0.974785 8.37711 1.1197 8.37595C1.96048 8.36918 2.73229 8.02172 3.34201 7.44283C2.55576 7.43268 1.8874 6.81922 1.6532 5.9726C1.76303 5.99702 1.87558 6.00954 1.99145 6.0086C2.15448 6.00729 2.31356 5.98032 2.46308 5.93004C1.6404 5.74074 1.01442 4.88193 1.00608 3.84562L1.00586 3.81802C1.24951 3.97632 1.52669 4.07033 1.82161 4.07907C1.33661 3.69918 1.01434 3.04843 1.00837 2.30656C1.00521 1.91473 1.09095 1.54634 1.24302 1.23071C2.13855 2.51601 3.4681 3.35649 4.9611 3.43381C4.92923 3.27802 4.91198 3.11328 4.91064 2.94727C4.90114 1.76681 5.69735 0.803382 6.68898 0.795398L6.68867 0.795784ZM6.68249 0.0289967C5.456 0.0388714 4.44887 1.14701 4.30384 2.56951C3.29835 2.32992 2.38049 1.68549 1.71691 0.733823C1.59651 0.56072 1.4205 0.462832 1.23654 0.464313C1.2203 0.464444 1.20406 0.465341 1.18752 0.467008C0.986861 0.488561 0.806818 0.627275 0.704518 0.839746C0.490088 1.28509 0.379243 1.79401 0.383413 2.31197C0.386197 2.6578 0.4395 2.99362 0.537921 3.308C0.436915 3.44838 0.379664 3.63096 0.381214 3.82343L0.381436 3.85103C0.387483 4.6021 0.634833 5.29716 1.041 5.81611C1.01894 5.9478 1.02505 6.0854 1.0614 6.217C1.20424 6.73308 1.45987 7.17694 1.78961 7.514C1.57053 7.57596 1.34434 7.60768 1.11291 7.60955C0.990477 7.61053 0.871417 7.60344 0.758842 7.58709C0.733825 7.58346 0.709139 7.58213 0.684465 7.58232C0.422114 7.58444 0.185444 7.78917 0.0998627 8.09966C0.0057742 8.43974 0.116242 8.81499 0.366379 9.00277C1.29466 9.70002 2.3633 10.0633 3.45643 10.0545C7.00942 10.0259 9.11916 6.59459 9.13385 3.25873C9.42224 2.9608 9.67653 2.61712 9.89114 2.23236C9.96944 2.10367 10.0153 1.94341 10.0139 1.77012C10.0118 1.50903 9.90377 1.27946 9.74056 1.14198C9.80814 0.846586 9.72561 0.527479 9.52884 0.334287C9.41393 0.221337 9.27354 0.164571 9.13331 0.1657C9.02587 0.166565 8.91839 0.201171 8.82212 0.270961C8.61685 0.418696 8.39697 0.536259 8.16496 0.621329C7.74113 0.235955 7.21781 0.02392 6.68218 0.0282324L6.68249 0.0289967Z" fill="black"/>
</svg>
